<?xml version="1.0" encoding="UTF-8"?>
<svg width="18px" height="20px" viewBox="0 0 18 20" version="1.1" xmlns="http://www.w3.org/2000/svg" xmlns:xlink="http://www.w3.org/1999/xlink">
    <title>feature-veilige-betalingen</title>
    <g id="feature-veilige-betalingen" stroke="none" stroke-width="1" fill="none" fill-rule="evenodd" stroke-linecap="round" stroke-linejoin="round">
        <g id="lock-closed" transform="translate(1.000000, 1.000000)" stroke="#1B0101" stroke-width="2">
            <path d="M8,12 L8,14 M2,18 L14,18 C15.1046,18 16,17.1046 16,16 L16,10 C16,8.8954 15.1046,8 14,8 L2,8 C0.89543,8 0,8.8954 0,10 L0,16 C0,17.1046 0.89543,18 2,18 Z M12,8 L12,4 C12,1.79086 10.2091,0 8,0 C5.79086,0 4,1.79086 4,4 L4,8 L12,8 Z" id="Shape"></path>
        </g>
    </g>
</svg>
