<?xml version="1.0" encoding="UTF-8"?><svg version="1.1" viewBox="0 0 40 40" xmlns="http://www.w3.org/2000/svg" xmlns:xlink="http://www.w3.org/1999/xlink"><path d="M9.24254 3.02985c.53579.13395.86156.67688.7276 1.21268l-.43936 1.75746h2.93842l.5607-2.24253c.1339-.5358.6768-.86156 1.2126-.72761 .5358.13395.8616.67688.7276 1.21268l-.4393 1.75746h2.4692c.5523 0 1 .44772 1 1 0 .55229-.4477 1-1 1h-2.9692l-1 4.00001h1.9692c.5523 0 1 .4477 1 1 0 .5523-.4477 1-1 1h-2.4692l-.5607 2.2425c-.1339.5358-.6768.8616-1.2126.7276 -.5358-.1339-.86159-.6768-.7276-1.2126l.4393-1.7575h-2.93842l-.56064 2.2425c-.13395.5358-.67688.8616-1.21268.7276 -.53579-.1339-.86155-.6768-.7276-1.2126l.43936-1.7575h-2.46922c-.55228 0-1-.4477-1-1 0-.5523.44772-1 1-1h2.96922l1-4.00001h-1.96922c-.55228 0-1-.44771-1-1 0-.55228.44772-1 1-1h2.46922l.56064-2.24253c.13395-.5358.67688-.86156 1.21268-.72761Zm-.21176 4.97014l-1 4.00001h2.93842l1-4.00001h-2.93842Z" transform="matrix(2 0 0 2 0 0)" fill-rule="evenodd" fill="#FFF"></path></svg>
