<?xml version="1.0" encoding="UTF-8"?>
<svg width="513px" height="512px" viewBox="0 0 513 512" version="1.1" xmlns="http://www.w3.org/2000/svg" xmlns:xlink="http://www.w3.org/1999/xlink">
    <title>icon-instagram</title>
    <g id="icon-instagram" stroke="none" stroke-width="1" fill="none" fill-rule="evenodd">
        <g id="instagram" transform="translate(1.000000, 0.995556)" fill="#000000" fill-rule="nonzero">
            <path d="M255.556999,124.490498 C183.053709,124.490498 124.572281,182.984976 124.572281,255.504444 C124.572281,328.023913 183.053709,386.518391 255.556999,386.518391 C328.06029,386.518391 386.541718,328.023913 386.541718,255.504444 C386.541718,182.984976 328.06029,124.490498 255.556999,124.490498 Z M255.556999,340.680613 C208.703458,340.680613 170.399833,302.482465 170.399833,255.504444 C170.399833,208.526424 208.589459,170.328276 255.556999,170.328276 C302.52454,170.328276 340.714166,208.526424 340.714166,255.504444 C340.714166,302.482465 302.410541,340.680613 255.556999,340.680613 L255.556999,340.680613 Z M422.451366,119.131355 C422.451366,136.120979 408.7715,149.689873 391.899665,149.689873 C374.913832,149.689873 361.347964,136.006955 361.347964,119.131355 C361.347964,102.255755 375.02783,88.5728367 391.899665,88.5728367 C408.7715,88.5728367 422.451366,102.255755 422.451366,119.131355 Z M509.204518,150.145971 C507.266537,109.211239 497.918628,72.9515046 467.936921,43.0771322 C438.069214,13.2027597 401.817568,3.85276532 360.891969,1.80032752 C318.712381,-0.594183247 192.287619,-0.594183247 150.108031,1.80032752 C109.296431,3.738741 73.0447853,13.0887354 43.0630786,42.9631078 C13.081372,72.8374803 3.84746235,109.097215 1.79548243,150.031946 C-0.598494144,192.220946 -0.598494144,318.673919 1.79548243,360.862918 C3.73346347,401.79765 13.081372,438.057384 43.0630786,467.931757 C73.0447853,497.806129 109.182432,507.156124 150.108031,509.208561 C192.287619,511.603072 318.712381,511.603072 360.891969,509.208561 C401.817568,507.270148 438.069214,497.920153 467.936921,467.931757 C497.804629,438.057384 507.152538,401.79765 509.204518,360.862918 C511.598494,318.673919 511.598494,192.33497 509.204518,150.145971 Z M454.713051,406.130574 C445.821138,428.479341 428.607306,445.697014 406.149526,454.704935 C372.519855,468.045781 292.720636,464.967124 255.556999,464.967124 C218.393363,464.967124 138.480145,467.931757 104.964473,454.704935 C82.6206916,445.811038 65.40686,428.593366 56.4009481,406.130574 C43.0630786,372.493399 46.1410485,292.676373 46.1410485,255.504444 C46.1410485,218.332515 43.1770775,138.401466 56.4009481,104.878315 C65.2928611,82.5295476 82.5066927,65.311875 104.964473,56.3039535 C138.594144,42.9631078 218.393363,46.0417645 255.556999,46.0417645 C292.720636,46.0417645 372.633854,43.0771322 406.149526,56.3039535 C428.493307,65.1978507 445.707139,82.4155233 454.713051,104.878315 C468.05092,138.51549 464.97295,218.332515 464.97295,255.504444 C464.97295,292.676373 468.05092,372.607423 454.713051,406.130574 Z" id="Shape"></path>
        </g>
    </g>
</svg>
