<?xml version="1.0" encoding="UTF-8"?>
<svg width="20px" height="16px" viewBox="0 0 20 16" version="1.1" xmlns="http://www.w3.org/2000/svg" xmlns:xlink="http://www.w3.org/1999/xlink">
    <title>icon-levering</title>
    <g id="icon-levering" stroke="none" stroke-width="1" fill="none" fill-rule="evenodd">
        <g id="truck" transform="translate(1.000000, 1.000000)">
            <path d="M6,12 C6,13.1046 5.10457,14 4,14 C2.89543,14 2,13.1046 2,12 C2,10.8954 2.89543,10 4,10 C5.10457,10 6,10.8954 6,12 Z" id="Path" fill="#FFFFFF" fill-rule="nonzero"></path>
            <path d="M16,12 C16,13.1046 15.1046,14 14,14 C12.8954,14 12,13.1046 12,12 C12,10.8954 12.8954,10 14,10 C15.1046,10 16,10.8954 16,12 Z" id="Path" fill="#FFFFFF" fill-rule="nonzero"></path>
            <path d="M10,11 L10,1 C10,0.44772 9.5523,0 9,0 L1,0 C0.44772,0 0,0.44772 0,1 L0,11 C0,11.5523 0.44772,12 1,12 L2,12 M10,11 C10,11.5523 9.5523,12 9,12 L6,12 M10,11 L10,3 C10,2.44772 10.4477,2 11,2 L13.5858,2 C13.851,2 14.1054,2.10536 14.2929,2.29289 L17.7071,5.7071 C17.8946,5.8946 18,6.149 18,6.4142 L18,11 C18,11.5523 17.5523,12 17,12 L16,12 M10,11 C10,11.5523 10.4477,12 11,12 L12,12 M2,12 C2,13.1046 2.89543,14 4,14 C5.10457,14 6,13.1046 6,12 M2,12 C2,10.8954 2.89543,10 4,10 C5.10457,10 6,10.8954 6,12 M12,12 C12,13.1046 12.8954,14 14,14 C15.1046,14 16,13.1046 16,12 M12,12 C12,10.8954 12.8954,10 14,10 C15.1046,10 16,10.8954 16,12" id="Shape" stroke="#1B0101" stroke-width="2" stroke-linecap="round" stroke-linejoin="round"></path>
        </g>
    </g>
</svg>
