<?xml version="1.0" encoding="UTF-8"?>
<svg width="20px" height="20px" viewBox="0 0 20 20" version="1.1" xmlns="http://www.w3.org/2000/svg" xmlns:xlink="http://www.w3.org/1999/xlink">
    <title>icon-check-mark-trentz</title>
    <g id="icon-check-mark-trentz" stroke="none" stroke-width="1" fill="none" fill-rule="evenodd">
        <g id="Check-Circle" fill="#EE1D52">
            <path d="M10,19.6 C15.30196,19.6 19.6,15.30196 19.6,10 C19.6,4.698064 15.30196,0.4 10,0.4 C4.698064,0.4 0.4,4.698064 0.4,10 C0.4,15.30196 4.698064,19.6 10,19.6 Z M14.44852,8.448532 C14.91712,7.979896 14.91712,7.220104 14.44852,6.751468 C13.97992,6.282844 13.22008,6.282844 12.75148,6.751468 L8.8,10.70296 L7.248532,9.151468 C6.779896,8.682844 6.020104,8.682844 5.551468,9.151468 C5.082844,9.620104 5.082844,10.37992 5.551468,10.84852 L7.951468,13.24852 C8.420104,13.71712 9.179896,13.71712 9.648532,13.24852 L14.44852,8.448532 L14.44852,8.448532 Z" id="Shape"></path>
        </g>
    </g>
</svg>
