<?xml version="1.0" encoding="UTF-8"?>
<svg width="16px" height="17px" viewBox="0 0 16 17" version="1.1" xmlns="http://www.w3.org/2000/svg" xmlns:xlink="http://www.w3.org/1999/xlink">
    <title>icon-winkelmandje</title>
    <g id="icon-winkelmandje" stroke="none" stroke-width="1" fill="none" fill-rule="evenodd">
        <g id="Shopping-Cart" fill="#4B5563" fill-rule="nonzero">
            <path d="M1,0 C0.44772,0 0,0.44772 0,1 C0,1.55228 0.44772,2 1,2 L2.21922,2 L2.52478,3.22224 C2.52799,3.23637 2.5315,3.25039 2.5353,3.26429 L3.89253,8.69321 L2.99995,9.5858 C1.74002,10.8457 2.63235,13 4.41416,13 L13,13 C13.5522,13 14,12.5523 14,12 C14,11.4477 13.5522,11 13,11 L4.41417,11 L5.41416,10 L12,10 C12.3788,10 12.725,9.786 12.8944,9.4472 L15.8944,3.44721 C16.0494,3.13723 16.0329,2.76909 15.8507,2.47427 C15.6684,2.17945 15.3466,2 15,2 L4.2808,2 L3.97016,0.75746 C3.85887,0.3123 3.45889,0 3.00002,0 L1.00002,0 L1,0 Z" id="Path"></path>
            <path d="M14,15.5 C14,16.3284 13.3284,17 12.5,17 C11.6716,17 11,16.3284 11,15.5 C11,14.6716 11.6716,14 12.5,14 C13.3284,14 14,14.6716 14,15.5 Z" id="Path"></path>
            <path d="M4.5,17 C5.32843,17 6,16.3284 6,15.5 C6,14.6716 5.32843,14 4.5,14 C3.67157,14 3,14.6716 3,15.5 C3,16.3284 3.67157,17 4.5,17 Z" id="Path"></path>
        </g>
    </g>
</svg>
