<?xml version="1.0" encoding="UTF-8"?>
<svg width="118px" height="20px" viewBox="0 0 118 20" version="1.1" xmlns="http://www.w3.org/2000/svg" xmlns:xlink="http://www.w3.org/1999/xlink">
    <title>icon-review-stars</title>
    <g id="Page-1" stroke="none" stroke-width="1" fill="none" fill-rule="evenodd">
        <g id="icon-review-stars" fill-rule="nonzero">
            <g id="Group_11">
                <rect id="Rectangle_35" fill="#4DD0E1" x="0" y="0" width="19.9367089" height="19.9367089" rx="6"></rect>
                <path d="M9.33920888,5.19863924 L8.03164556,7.84993669 L5.10579114,8.27715187 C4.86448288,8.31251087 4.66413554,8.48172219 4.58890028,8.71371269 C4.51366501,8.94570319 4.57657351,9.20028925 4.75120253,9.370538 L6.86791138,11.4325633 L6.36806963,14.3461709 C6.32705669,14.5863415 6.42585275,14.8289838 6.622967,14.9721967 C6.82008125,15.1154097 7.08137725,15.1343917 7.29712025,15.0211709 L9.91452531,13.645538 L12.5319304,15.0211709 C12.7476041,15.1335045 13.0082778,15.1140853 13.2049264,14.9710352 C13.401575,14.8279851 13.5003122,14.5859544 13.4598418,14.3461709 L12.96,11.4325633 L15.0767089,9.370538 C15.2513379,9.20028925 15.3142464,8.94570319 15.2390111,8.71371269 C15.1637759,8.48172219 14.9634285,8.31251087 14.7221203,8.27715187 L11.7962658,7.84993669 L10.4887026,5.19863924 C10.3804853,4.98016719 10.157761,4.84194017 9.91395569,4.84194017 C9.67015044,4.84194017 9.44742613,4.98016719 9.33920888,5.19863924 Z" id="Icon_awesome-star" fill="#FFFFFF"></path>
            </g>
            <g id="Group_12" transform="translate(24.493671, 0.000000)">
                <rect id="Rectangle_36" fill="#4DD0E1" x="0" y="0" width="19.9367089" height="19.9367089" rx="6"></rect>
                <path d="M9.33920888,5.19863924 L8.03164556,7.84993669 L5.10579114,8.27715187 C4.86448287,8.31251087 4.66413554,8.48172219 4.58890027,8.71371269 C4.51366501,8.94570319 4.57657351,9.20028925 4.75120253,9.370538 L6.86791137,11.4325633 L6.36806962,14.3461709 C6.32705669,14.5863415 6.42585275,14.8289838 6.622967,14.9721967 C6.82008125,15.1154097 7.08137725,15.1343917 7.29712025,15.0211709 L9.91452531,13.645538 L12.5319304,15.0211709 C12.7476041,15.1335045 13.0082778,15.1140853 13.2049264,14.9710352 C13.401575,14.8279851 13.5003122,14.5859544 13.4598418,14.3461709 L12.96,11.4325633 L15.0767089,9.370538 C15.2513379,9.20028925 15.3142464,8.94570319 15.2390111,8.71371269 C15.1637759,8.48172219 14.9634285,8.31251087 14.7221203,8.27715187 L11.7962658,7.84993669 L10.4887026,5.19863924 C10.3804853,4.98016719 10.157761,4.84194017 9.91395569,4.84194017 C9.67015044,4.84194017 9.44742612,4.98016719 9.33920888,5.19863924 Z" id="Icon_awesome-star-2" fill="#FFFFFF"></path>
            </g>
            <g id="Group_13" transform="translate(48.987342, 0.000000)">
                <rect id="Rectangle_36-2" fill="#4DD0E1" x="0" y="0" width="19.9367089" height="19.9367089" rx="6"></rect>
                <path d="M9.33920888,5.19863924 L8.03164556,7.84993669 L5.10579114,8.27715187 C4.86448288,8.31251087 4.66413554,8.48172219 4.58890028,8.71371269 C4.51366501,8.94570319 4.57657351,9.20028925 4.75120253,9.370538 L6.86791138,11.4325633 L6.36806963,14.3461709 C6.32705669,14.5863415 6.42585275,14.8289838 6.622967,14.9721967 C6.82008125,15.1154097 7.08137725,15.1343917 7.29712025,15.0211709 L9.91452531,13.645538 L12.5319304,15.0211709 C12.7476041,15.1335045 13.0082778,15.1140853 13.2049264,14.9710352 C13.401575,14.8279851 13.5003122,14.5859544 13.4598418,14.3461709 L12.96,11.4325633 L15.0767089,9.370538 C15.2513379,9.20028925 15.3142464,8.94570319 15.2390111,8.71371269 C15.1637759,8.48172219 14.9634285,8.31251087 14.7221203,8.27715187 L11.7962658,7.84993669 L10.4887026,5.19863924 C10.3804853,4.98016719 10.157761,4.84194017 9.91395569,4.84194017 C9.67015044,4.84194017 9.44742613,4.98016719 9.33920888,5.19863924 Z" id="Icon_awesome-star-3" fill="#FFFFFF"></path>
            </g>
            <g id="Group_14" transform="translate(73.481012, 0.000000)">
                <rect id="Rectangle_36-3" fill="#4DD0E1" x="0" y="0" width="19.9367089" height="19.9367089" rx="6"></rect>
                <path d="M9.33920888,5.19863924 L8.03164556,7.84993669 L5.10579114,8.27715187 C4.86448288,8.31251087 4.66413554,8.48172219 4.58890028,8.71371269 C4.51366501,8.94570319 4.57657351,9.20028925 4.75120253,9.370538 L6.86791138,11.4325633 L6.36806963,14.3461709 C6.32705669,14.5863415 6.42585275,14.8289838 6.622967,14.9721967 C6.82008125,15.1154097 7.08137725,15.1343917 7.29712025,15.0211709 L9.91452531,13.645538 L12.5319304,15.0211709 C12.7476041,15.1335045 13.0082778,15.1140853 13.2049264,14.9710352 C13.401575,14.8279851 13.5003122,14.5859544 13.4598418,14.3461709 L12.96,11.4325633 L15.0767089,9.370538 C15.2513379,9.20028925 15.3142464,8.94570319 15.2390111,8.71371269 C15.1637759,8.48172219 14.9634285,8.31251087 14.7221203,8.27715187 L11.7962658,7.84993669 L10.4887026,5.19863924 C10.3804853,4.98016719 10.157761,4.84194017 9.91395569,4.84194017 C9.67015044,4.84194017 9.44742613,4.98016719 9.33920888,5.19863924 Z" id="Icon_awesome-star-4" fill="#FFFFFF"></path>
            </g>
            <g id="Group_15" transform="translate(97.974684, 0.000000)">
                <rect id="Rectangle_36-4" fill="#C2C2C2" x="0" y="0" width="19.9367089" height="19.9367089" rx="6"></rect>
                <path d="M9.33920888,5.19863924 L8.03164556,7.84993669 L5.10579114,8.27715187 C4.86448288,8.31251087 4.66413554,8.48172219 4.58890028,8.71371269 C4.51366501,8.94570319 4.57657351,9.20028925 4.75120253,9.370538 L6.86791138,11.4325633 L6.36806963,14.3461709 C6.32705669,14.5863415 6.42585275,14.8289838 6.622967,14.9721967 C6.82008125,15.1154097 7.08137725,15.1343917 7.29712025,15.0211709 L9.91452531,13.645538 L12.5319304,15.0211709 C12.7476041,15.1335045 13.0082778,15.1140853 13.2049264,14.9710352 C13.401575,14.8279851 13.5003122,14.5859544 13.4598418,14.3461709 L12.96,11.4325633 L15.0767089,9.370538 C15.2513379,9.20028925 15.3142464,8.94570319 15.2390111,8.71371269 C15.1637759,8.48172219 14.9634285,8.31251087 14.7221203,8.27715187 L11.7962658,7.84993669 L10.4887026,5.19863924 C10.3804853,4.98016719 10.157761,4.84194017 9.91395569,4.84194017 C9.67015044,4.84194017 9.44742613,4.98016719 9.33920888,5.19863924 Z" id="Icon_awesome-star-5" fill="#FFFFFF"></path>
            </g>
        </g>
    </g>
</svg>
