<?xml version="1.0" encoding="UTF-8"?>
<svg width="20px" height="20px" viewBox="0 0 20 20" version="1.1" xmlns="http://www.w3.org/2000/svg" xmlns:xlink="http://www.w3.org/1999/xlink">
    <title>icon-tevredenheidsgarantie-usp</title>
    <g id="icon-tevredenheidsgarantie-usp" stroke="none" stroke-width="1" fill="none" fill-rule="evenodd">
        <g id="Emoji-Happy" fill="#EE1D52">
            <path d="M10,19.6 C15.30196,19.6 19.6,15.30196 19.6,10 C19.6,4.698064 15.30196,0.4 10,0.4 C4.698064,0.4 0.4,4.698064 0.4,10 C0.4,15.30196 4.698064,19.6 10,19.6 Z M6.4,8.8 C7.062736,8.8 7.6,8.262736 7.6,7.6 C7.6,6.937264 7.062736,6.4 6.4,6.4 C5.737264,6.4 5.2,6.937264 5.2,7.6 C5.2,8.262736 5.737264,8.8 6.4,8.8 Z M14.8,7.6 C14.8,8.262736 14.26276,8.8 13.6,8.8 C12.93724,8.8 12.4,8.262736 12.4,7.6 C12.4,6.937264 12.93724,6.4 13.6,6.4 C14.26276,6.4 14.8,6.937264 14.8,7.6 Z M14.2426,14.24248 C14.71132,13.77388 14.71132,13.01416 14.2426,12.54544 C13.774,12.07684 13.01416,12.07684 12.54556,12.54544 C11.13964,13.95136 8.8603,13.95136 7.454416,12.54544 C6.985792,12.07684 6.225988,12.07684 5.757364,12.54544 C5.288728,13.01416 5.288728,13.77388 5.757364,14.24248 C8.100508,16.58572 11.89948,16.58572 14.2426,14.24248 L14.2426,14.24248 Z" id="Shape"></path>
        </g>
    </g>
</svg>
