<?xml version="1.0" encoding="UTF-8"?>
<svg width="20px" height="18px" viewBox="0 0 20 18" version="1.1" xmlns="http://www.w3.org/2000/svg" xmlns:xlink="http://www.w3.org/1999/xlink">
    <title>icon-gratis-verzonden-usp</title>
    <g id="icon-gratis-verzonden-usp" stroke="none" stroke-width="1" fill="none" fill-rule="evenodd">
        <g id="Truck" fill="#EE1D52" fill-rule="nonzero">
            <path d="M7.6,15.8 C7.6,16.79408 6.794116,17.6 5.8,17.6 C4.805884,17.6 4,16.79408 4,15.8 C4,14.80592 4.805884,14 5.8,14 C6.794116,14 7.6,14.80592 7.6,15.8 Z" id="Path"></path>
            <path d="M16,15.8 C16,16.79408 15.19408,17.6 14.2,17.6 C13.20592,17.6 12.4,16.79408 12.4,15.8 C12.4,14.80592 13.20592,14 14.2,14 C15.19408,14 16,14.80592 16,15.8 Z" id="Path"></path>
            <path d="M1.6,0.8 C0.937264,0.8 0.4,1.337264 0.4,2 L0.4,14 C0.4,14.66276 0.937264,15.2 1.6,15.2 L2.860012,15.2 C3.137968,13.83068 4.348624,12.8 5.8,12.8 C7.251376,12.8 8.462032,13.83068 8.739988,15.2 L10,15.2 C10.66276,15.2 11.2,14.66276 11.2,14 L11.2,2 C11.2,1.337264 10.66276,0.8 10,0.8 L1.6,0.8 Z" id="Path"></path>
            <path d="M14.8,4.4 C14.13724,4.4 13.6,4.937264 13.6,5.6 L13.6,12.86 C13.79392,12.82064 13.99456,12.8 14.2,12.8 C15.6514,12.8 16.86208,13.83068 17.14,15.2 L18.4,15.2 C19.06276,15.2 19.6,14.66276 19.6,14 L19.6,8 C19.6,7.681736 19.47352,7.376516 19.24852,7.151468 L16.84852,4.751468 C16.62352,4.526432 16.31824,4.4 16,4.4 L14.8,4.4 Z" id="Path"></path>
        </g>
    </g>
</svg>
