<?xml version="1.0" encoding="UTF-8"?>
<svg width="20px" height="20px" viewBox="0 0 20 20" version="1.1" xmlns="http://www.w3.org/2000/svg" xmlns:xlink="http://www.w3.org/1999/xlink">
    <title>icon-tevredenheidsgarantie</title>
    <g id="icon-tevredenheidsgarantie" stroke="none" stroke-width="1" fill="none" fill-rule="evenodd" stroke-linecap="round" stroke-linejoin="round">
        <g id="badge-check" transform="translate(1.000000, 1.000000)" stroke="#1B0101" stroke-width="2">
            <path d="M6.00012,9 L8.0001,11 L12.0001,7 M4.83486,1.69705 C5.55239,1.63979 6.23358,1.35763 6.78144,0.89075 C8.0599,-0.19877 9.9403,-0.19877 11.2188,0.89075 C11.7667,1.35763 12.4478,1.63979 13.1654,1.69705 C14.8398,1.83067 16.1695,3.16031 16.3031,4.83474 C16.3603,5.55227 16.6425,6.23346 17.1094,6.78132 C18.1989,8.0598 18.1989,9.9402 17.1094,11.2187 C16.6425,11.7665 16.3603,12.4477 16.3031,13.1653 C16.1695,14.8397 14.8398,16.1693 13.1654,16.303 C12.4479,16.3602 11.7667,16.6424 11.2188,17.1093 C9.9403,18.1988 8.0599,18.1988 6.78144,17.1093 C6.23358,16.6424 5.55239,16.3602 4.83486,16.303 C3.16043,16.1693 1.83079,14.8397 1.69717,13.1653 C1.63991,12.4477 1.35775,11.7665 0.89087,11.2187 C-0.19865,9.9402 -0.19865,8.0598 0.89087,6.78132 C1.35775,6.23346 1.63991,5.55227 1.69717,4.83474 C1.83079,3.16031 3.16043,1.83067 4.83486,1.69705 Z" id="Shape"></path>
        </g>
    </g>
</svg>
