<?xml version="1.0" encoding="UTF-8"?>
<svg width="20px" height="20px" viewBox="0 0 20 20" version="1.1" xmlns="http://www.w3.org/2000/svg" xmlns:xlink="http://www.w3.org/1999/xlink">
    <title>icon-support</title>
    <g id="icon-support" stroke="none" stroke-width="1" fill="none" fill-rule="evenodd" stroke-linecap="round" stroke-linejoin="round">
        <g id="badge-check" transform="translate(1.000000, 1.000000)" stroke="#1B0101" stroke-width="2">
            <g id="chat-alt-2">
                <path d="M14,4 L16,4 C17.1046,4 18,4.89543 18,6 L18,12 C18,13.1046 17.1046,14 16,14 L14,14 L14,18 L10,14 L6,14 C5.44772,14 4.94772,13.7761 4.58579,13.4142 M4.58579,13.4142 L8,10 L12,10 C13.1046,10 14,9.1046 14,8 L14,2 C14,0.89543 13.1046,0 12,0 L2,0 C0.89543,0 0,0.89543 0,2 L0,8 C0,9.1046 0.89543,10 2,10 L4,10 L4,14 L4.58579,13.4142 Z" id="Shape"></path>
            </g>
        </g>
    </g>
</svg>
