<?xml version="1.0" encoding="UTF-8"?>
<svg width="20px" height="20px" viewBox="0 0 20 20" version="1.1" xmlns="http://www.w3.org/2000/svg" xmlns:xlink="http://www.w3.org/1999/xlink">
    <title>icon-veilig-betalen-usp</title>
    <g id="icon-veilig-betalen-usp" stroke="none" stroke-width="1" fill="none" fill-rule="evenodd">
        <g id="Shield-Check" fill="#EE1D52">
            <path d="M0.599332,3.998692 C4.209244,3.949708 7.498336,2.572396 10,0.333352 C12.50164,2.572396 15.79072,3.949708 19.40068,3.998692 C19.53172,4.779616 19.6,5.581852 19.6,6.400036 C19.6,12.66988 15.59296,18.00376 10,19.980676 C4.407076,18.003796 0.4,12.669916 0.4,6.400036 C0.4,5.581852 0.468232,4.779616 0.599332,3.998692 Z M14.448532,8.448532 C14.917132,7.979896 14.917132,7.220104 14.448532,6.751468 C13.979932,6.282844 13.220092,6.282844 12.751492,6.751468 L8.800012,10.70296 L7.248544,9.151468 C6.779908,8.682844 6.020116,8.682844 5.55148,9.151468 C5.082856,9.620104 5.082856,10.37992 5.55148,10.84852 L7.95148,13.24852 C8.420116,13.71712 9.179908,13.71712 9.648544,13.24852 L14.448532,8.448532 L14.448532,8.448532 Z" id="Shape"></path>
        </g>
    </g>
</svg>
