<?xml version="1.0" encoding="UTF-8"?><svg version="1.1" viewBox="0 0 40 40" xmlns="http://www.w3.org/2000/svg" xmlns:xlink="http://www.w3.org/1999/xlink"><path d="M2.16611 4.99891c3.00826-.04082 5.74917-1.18858 7.83389-3.05445 2.0847 1.86587 4.8256 3.01363 7.8339 3.05445 .1092.65077.1661 1.3193.1661 2.00112 0 5.22487-3.3392 9.66977-8 11.3172 -4.66077-1.6474-8-6.0923-8-11.3172 0-.68182.05686-1.35035.16611-2.00112Zm11.541 3.7082c.3905-.39053.3905-1.02369 0-1.41422 -.3905-.39052-1.0237-.39052-1.4142 0l-3.2929 3.29291 -1.29289-1.29291c-.39053-.39052-1.02369-.39052-1.41422 0 -.39052.39053-.39052 1.02371 0 1.41421l2 2c.39053.3905 1.02369.3905 1.41422 0l3.99999-3.99999Z" transform="matrix(2 0 0 2 0 0)" fill-rule="evenodd" fill="#FFF"></path></svg>
