<?xml version="1.0" encoding="UTF-8"?><svg version="1.1" viewBox="0 0 40 40" xmlns="http://www.w3.org/2000/svg" xmlns:xlink="http://www.w3.org/1999/xlink"><path d="M17.7071 9.29289c.3905.39053.3905 1.02371 0 1.41421l-7 7c-.3905.3905-1.02368.3905-1.41421 0l-7-7c-.19529-.1953-.29292-.4513-.29289-.70722v-4.99988c0-1.65685 1.34315-3 3-3h5.0003c.2558 7e-05 .5116.0977.7068.29289l7 7Zm-12.7071-3.29289c.55228 0 1-.44772 1-1 0-.55228-.44772-1-1-1 -.55228 0-1 .44772-1 1 0 .55228.44772 1 1 1Z" transform="matrix(2 0 0 2 0 0)" fill-rule="evenodd" fill="#FFF"></path></svg>
